<?xml version="1.0" standalone="no"?>
<!DOCTYPE svg PUBLIC "-//W3C//DTD SVG 20010904//EN"
 "http://www.w3.org/TR/2001/REC-SVG-20010904/DTD/svg10.dtd">
<svg version="1.0" xmlns="http://www.w3.org/2000/svg"
 width="32.000000pt" height="32.000000pt" viewBox="0 0 32.000000 32.000000"
 preserveAspectRatio="xMidYMid meet">

<g transform="translate(0.000000,32.000000) scale(0.100000,-0.100000)"
fill="#000000" stroke="none">
<path d="M77 242 l-77 -78 80 -80 80 -81 78 79 77 79 -79 80 c-44 43 -80 79
-81 79 0 0 -35 -35 -78 -78z m63 -37 c0 -8 -4 -15 -10 -15 -5 0 -10 7 -10 15
0 8 5 15 10 15 6 0 10 -7 10 -15z m70 5 c0 -5 -7 -10 -16 -10 -13 0 -14 -3 -5
-13 8 -10 7 -17 -1 -25 -10 -10 -10 -17 0 -32 11 -19 9 -20 -30 -20 -42 0 -43
0 -43 35 0 21 5 35 13 35 7 0 12 -13 12 -30 0 -16 5 -30 10 -30 6 0 10 15 8
34 -1 19 4 41 11 50 15 18 41 22 41 6z"/>
</g>
</svg>
